HIERARCHY
ROOT Hips
{
	OFFSET 0.00000 0.00000 0.00000
	CHANNELS 6 Xposition Yposition Zposition Zrotation Yrotation Xrotation 
	JOINT LHipJoint
	{
		OFFSET 0 0 0
		CHANNELS 3 Zrotation Yrotation Xrotation
		JOINT LeftHip
		{
			OFFSET 1.62329 -1.80800 0.67318
			CHANNELS 3 Zrotation Yrotation Xrotation
			JOINT LeftKnee
			{
				OFFSET 2.57139 -7.06484 0.00000
				CHANNELS 3 Zrotation Yrotation Xrotation
				JOINT LeftAnkle
				{
					OFFSET 2.52017 -6.92413 0.00000
					CHANNELS 3 Zrotation Yrotation Xrotation
					JOINT LeftToe
					{
						OFFSET 0.23295 -0.64001 2.10214
						CHANNELS 3 Zrotation Yrotation Xrotation
						End Site
						{
							OFFSET 0.00000 -0.00000 1.10139
						}
					}
				}
			}
		}
	}
	JOINT RHipJoint
	{
		OFFSET 0 0 0
		CHANNELS 3 Zrotation Yrotation Xrotation
		JOINT RightHip
		{
			OFFSET -1.48061 -1.80800 0.67318
			CHANNELS 3 Zrotation Yrotation Xrotation
			JOINT RightKnee
			{
				OFFSET -2.63258 -7.23296 0.00000
				CHANNELS 3 Zrotation Yrotation Xrotation
				JOINT RightAnkle
				{
					OFFSET -2.54779 -7.00000 0.00000
					CHANNELS 3 Zrotation Yrotation Xrotation
					JOINT RightToe
					{
						OFFSET -0.23067 -0.63376 2.12161
						CHANNELS 3 Zrotation Yrotation Xrotation
						End Site
						{
							OFFSET -0.00000 -0.00000 1.11000
						}
					}
				}
			}
		}
	}
	JOINT lowerback
	{
		OFFSET 0 0 0
		CHANNELS 3 Zrotation Yrotation Xrotation
		JOINT Chest
		{
			OFFSET -0.02108 2.07573 -0.16981
			CHANNELS 3 Zrotation Yrotation Xrotation
			JOINT Chest2
			{
				OFFSET 0.05070 2.08439 -0.03141
				CHANNELS 3 Zrotation Yrotation Xrotation
				JOINT lowerneck
				{
					OFFSET 0 0 0
					CHANNELS 3 Zrotation Yrotation Xrotation
					JOINT Neck
					{
						OFFSET -0.10731 1.60408 0.31370
						CHANNELS 3 Zrotation Yrotation Xrotation
						JOINT Head
						{
							OFFSET 0.08411 1.65679 -0.30822
							CHANNELS 3 Zrotation Yrotation Xrotation
							End Site
							{
								OFFSET 0.03911 1.69149 -0.14146
							}
						}
					}
				}
				JOINT LeftCollar
				{
					OFFSET 0 0 0
					CHANNELS 3 Zrotation Yrotation Xrotation
					JOINT LeftShoulder
					{
						OFFSET 3.52315 0.73219 -0.54694
CHANNELS 3 Zrotation Xrotation Yrotation
						JOINT LeftElbow
						{
OFFSET 0 -5.324620 -0.000000
CHANNELS 3 Zrotation Xrotation Yrotation
							JOINT LeftWrist
							{
OFFSET 0 -3.484020 -0.000000
CHANNELS 3 Zrotation Xrotation Yrotation
								JOINT lhand
								{
									OFFSET 0 0 0
CHANNELS 3 Zrotation Xrotation Yrotation
									JOINT LFingers
									{
OFFSET 0 -0.572480 -0.000000
CHANNELS 3 Zrotation Xrotation Yrotation
										End Site
										{
OFFSET 0 -0.461540 -0.000000
										}
									}
								}
								JOINT LThumb
								{
OFFSET 0 0.000000 0.000000
CHANNELS 3 Zrotation Xrotation Yrotation
									End Site
									{
OFFSET 0 -0.468590 0.468590
									}
								}
							}
						}
					}
				}
				JOINT RightCollar
				{
					OFFSET 0 0 0
					CHANNELS 3 Zrotation Yrotation Xrotation
					JOINT RightShoulder
					{
						OFFSET -3.41766 0.93592 -0.10019
CHANNELS 3 Zrotation Xrotation Yrotation
						JOINT RightElbow
						{
OFFSET 0 -5.335890 -0.000000
CHANNELS 3 Zrotation Xrotation Yrotation
							JOINT RightWrist
							{
OFFSET 0 -3.641340 -0.000000
CHANNELS 3 Zrotation Xrotation Yrotation
								JOINT rhand
								{
									OFFSET 0 0 0
CHANNELS 3 Zrotation Xrotation Yrotation
									JOINT RFingers
									{
OFFSET 0 -0.734810 -0.000000
CHANNELS 3 Zrotation Xrotation Yrotation
										End Site
										{
OFFSET 0 -0.592420 -0.000000
										}
									}
								}
								JOINT RThumb
								{
OFFSET 0 0.000000 0.000000
CHANNELS 3 Zrotation Xrotation Yrotation
									End Site
									{
OFFSET 0 -0.601470 0.601470
									}
								}
							}
						}
					}
				}
			}
		}
	}
}
MOTION
Frames: 10
Frame Time: 0.008333333333333333
0.248742 14.017874 -5.975432 9.436382 -23.937234 -1.338789 0.000000 0.000000 0.000000 -2.449371 3.669576 -33.303598 17.268548 19.819681 81.990447 1.911433 -19.698985 -26.593625 4.656182 -12.985016 -39.313712 0.000000 0.000000 0.000000 -19.709775 11.560645 -49.952283 -14.856149 -19.352815 74.802647 -0.051508 19.229261 -13.968812 -1.775684 8.381804 -23.880120 -0.486622 -0.730179 25.151880 5.136558 -0.685399 5.224326 6.219022 -0.318062 -8.116422 -6.950167 1.343589 -21.355294 0.586022 3.814916 14.843833 1.800068 1.459377 7.955708 0.000000 0.000000 0.000000 6.136486 -29.062740 -17.811493 151.417829 -39.646556 109.506881 10.799359 0.375313 -5.412692 0.000000 0.000000 0.000000 -7.125000 0.000000 0.000000 -13.170972 35.232068 -3.231085 0.000000 0.000000 0.000000 -15.398879 -12.374136 14.258324 -151.497184 -39.574437 -109.557360 -16.502017 -23.756613 -22.376832 0.000000 0.000000 0.000000 7.125000 0.000000 0.000000 7.772454 6.918958 6.844401
0.066556 15.109069 -5.565508 10.716293 -27.052836 -1.486700 0.000000 0.000000 0.000000 -7.228702 6.906623 -27.036941 13.165146 18.839248 69.635963 0.964252 -14.806587 -19.043899 3.580794 -11.580423 -34.263579 0.000000 0.000000 0.000000 -17.864066 14.760967 -42.174338 -10.752298 -17.809806 61.972104 -0.005550 16.212302 -11.447816 -1.186174 6.906665 -19.441271 -0.305275 -1.130028 21.646338 5.327701 -1.189275 4.316999 6.343468 -0.564925 -7.244458 -6.472209 2.943436 -21.134489 -1.781948 6.343544 15.891999 1.259417 2.388243 8.285033 0.000000 0.000000 0.000000 5.665607 -24.874396 -14.727243 153.673572 -37.529153 110.914172 10.228493 1.520207 -5.741605 0.000000 0.000000 0.000000 -7.125000 0.000000 0.000000 -13.695993 35.527608 -3.264669 0.000000 0.000000 0.000000 -13.886806 1.956235 2.580036 -137.464208 -49.480119 -99.646254 -8.444272 -31.166513 -22.701944 0.000000 0.000000 0.000000 7.125000 0.000000 0.000000 12.813116 7.515608 11.320163
-0.125528 16.216771 -5.223331 8.930655 -23.755043 -1.243192 0.000000 0.000000 0.000000 -8.366602 5.720661 -20.019413 8.952623 16.776182 55.924882 0.363311 -9.635973 -11.837843 3.366204 -11.265448 -33.180437 0.000000 0.000000 0.000000 -12.505785 14.607059 -29.655992 -6.777751 -15.140981 48.027129 -0.343220 8.354785 -11.178925 -0.776799 5.626906 -15.705678 -1.658041 -1.536411 19.134253 5.754754 -1.931479 2.644100 7.740343 -0.832993 -7.589035 -7.404856 3.703110 -21.487876 -1.969373 7.859446 17.844093 1.582272 2.919614 8.957700 0.000000 0.000000 0.000000 5.880614 -22.792953 -11.447213 155.224868 -35.973346 111.842519 8.424754 1.811296 -6.071818 0.000000 0.000000 0.000000 -7.125000 0.000000 0.000000 -15.228902 35.753556 -3.564388 0.000000 0.000000 0.000000 -7.604948 15.414372 -10.768777 -80.253948 -59.600455 -51.572445 0.710867 -42.708911 -20.702337 0.000000 0.000000 0.000000 7.125000 0.000000 0.000000 18.505042 10.072569 15.855795
-0.386658 17.088636 -4.977460 4.234853 -12.011992 -0.470773 0.000000 0.000000 0.000000 -6.365363 0.352149 -15.428990 5.111029 13.506817 41.298320 0.230577 0.328153 -9.197974 3.375803 -11.279696 -33.229369 0.000000 0.000000 0.000000 -5.687366 10.663125 -18.405341 -5.145962 -13.546128 41.449267 -0.222030 -1.101172 -9.383569 -0.122660 2.255542 -6.212623 -3.659560 -1.833439 14.472419 5.583569 -2.677902 2.393618 8.578236 -1.235971 -5.121338 -9.410109 2.159356 -24.366428 1.178836 6.093821 19.838573 2.865937 2.209102 10.031586 0.000000 0.000000 0.000000 11.320365 -25.087890 -6.943200 155.093103 -36.108713 111.764999 8.267130 -0.077153 -6.761126 0.000000 0.000000 0.000000 -7.125000 0.000000 0.000000 -15.501333 36.415605 -3.372691 0.000000 0.000000 0.000000 0.482553 15.369278 -33.426683 -35.945783 -45.466958 -15.486738 7.247391 -55.711249 -17.972336 0.000000 0.000000 0.000000 7.125000 0.000000 0.000000 22.711603 12.782280 18.689535
-0.664750 17.558148 -4.697210 -3.773550 11.996328 -0.665348 0.000000 0.000000 0.000000 1.632323 -17.254744 -15.342012 3.668659 11.705441 34.698441 0.018846 1.101554 -3.266301 3.804170 -11.894094 -35.359729 0.000000 0.000000 0.000000 5.839359 -3.072587 -7.564045 -3.935092 -12.073428 35.992460 -0.298271 -7.138483 -15.325919 -0.010029 0.575204 -1.580775 -5.339635 -0.811416 11.666042 4.379300 -1.512152 0.625192 7.959616 -0.549499 -5.638473 -12.755870 -6.038426 -22.805106 12.263082 -7.188055 20.602451 5.472760 -2.791008 11.428314 0.000000 0.000000 0.000000 14.158861 -31.607308 -16.964698 150.837739 -40.161664 109.133728 9.637807 1.019114 -5.840826 0.000000 0.000000 0.000000 -7.125000 0.000000 0.000000 -14.197062 35.593040 -3.364826 0.000000 0.000000 0.000000 -4.882976 15.356713 -43.047115 -26.413547 -37.613893 -9.138929 5.102456 -61.747808 -16.349057 0.000000 0.000000 0.000000 7.125000 0.000000 0.000000 21.580408 14.283715 16.852941
-0.783622 17.279490 -4.728662 -7.431785 30.460194 0.136340 0.000000 0.000000 0.000000 8.575043 -27.224772 -24.385972 3.424359 11.352097 33.476973 -0.168938 -8.434478 -1.491516 3.592602 -11.594726 -34.316638 0.000000 0.000000 0.000000 13.210470 -16.821111 -8.174259 -4.785518 -13.137961 39.887364 -0.829305 -1.902183 -17.989520 -0.312629 3.593926 -9.937012 -6.154617 1.996297 10.882079 0.304120 1.872708 -0.787016 3.473999 1.157337 -7.172030 -14.786566 -11.674610 -15.663933 20.114825 -16.615110 14.302982 6.958952 -6.853253 10.246701 0.000000 0.000000 0.000000 15.522675 -39.891353 -27.471311 146.846528 -43.447626 106.472512 10.018922 3.495784 -5.350594 0.000000 0.000000 0.000000 -7.125000 0.000000 0.000000 -13.794278 35.131214 -3.425759 0.000000 0.000000 0.000000 -40.693725 -3.133860 -43.334595 -29.263253 -40.253365 -10.930447 -1.164588 -61.406702 -16.704862 0.000000 0.000000 0.000000 7.125000 0.000000 0.000000 17.589359 13.796673 13.554815
-0.901237 16.658194 -4.924302 -6.639555 31.613210 -0.076791 0.000000 0.000000 0.000000 7.300138 -20.233342 -29.942266 4.456766 12.744582 38.419848 -0.533758 -16.570160 -5.161182 2.417013 -9.685184 -27.963177 0.000000 0.000000 0.000000 14.039652 -16.061900 -7.458717 -5.227141 -13.635115 41.795124 -2.375580 -1.495930 -29.719068 -1.643539 8.080318 -22.958353 0.161123 3.814785 12.371691 -3.212139 4.868778 -0.849331 -4.407493 2.300710 -7.543396 -13.922334 -11.758309 -13.790149 17.544840 -16.538726 14.232986 5.965310 -7.106858 9.482380 0.000000 0.000000 0.000000 14.580014 -35.066443 -24.566690 149.806073 -41.058781 108.463126 9.632970 3.342691 -6.469463 0.000000 0.000000 0.000000 -7.125000 0.000000 0.000000 -14.323192 36.210865 -3.176023 0.000000 0.000000 0.000000 -92.511860 -50.816788 -40.513319 -33.954103 -44.048396 -14.081931 1.926154 -42.620725 -20.827802 0.000000 0.000000 0.000000 7.125000 0.000000 0.000000 19.236772 10.002921 16.592321
-1.192633 16.443474 -4.680940 -7.638920 42.425909 0.618217 0.000000 0.000000 0.000000 9.450355 -23.345555 -36.587302 4.427964 12.709082 38.289098 -1.259028 -21.095583 -1.027441 1.438134 -7.557859 -21.390690 0.000000 0.000000 0.000000 18.827267 -22.763177 -9.305565 -4.955785 -13.333808 40.631173 -3.623468 -4.371181 -37.687502 -1.528587 7.804667 -22.123072 0.527339 4.723093 10.512508 -3.204977 6.182201 0.068619 -4.567060 3.002527 -5.389443 -11.952128 -15.235953 -13.035631 21.611102 -21.907822 9.454801 5.981789 -9.408159 9.004412 0.000000 0.000000 0.000000 6.121533 -30.841932 -35.943986 149.227413 -41.546489 108.081197 6.540502 1.889774 -6.038325 0.000000 0.000000 0.000000 -7.125000 0.000000 0.000000 -16.750023 35.614874 -4.001159 0.000000 0.000000 0.000000 -114.778380 -77.895661 -35.098932 -48.700982 -52.448860 -25.142933 4.524871 -27.923644 -22.256517 0.000000 0.000000 0.000000 7.125000 0.000000 0.000000 20.689889 8.739699 18.596147
-1.457475 16.504425 -4.605351 -9.938727 46.425826 -0.554070 0.000000 0.000000 0.000000 11.488493 -25.003144 -37.470042 3.815875 11.911220 35.418717 -0.980964 -18.458071 -0.278919 2.249288 -9.366477 -26.949113 0.000000 0.000000 0.000000 21.165278 -22.027008 -12.020548 -5.834797 -14.266324 44.315028 -3.161620 -1.889205 -34.367005 -1.460301 7.637491 -21.618507 -0.530653 5.409409 9.922023 -2.373621 7.036308 0.889320 -3.114229 3.478202 -4.368400 -12.949290 -16.625596 -11.443535 25.951199 -24.092095 6.788243 7.170496 -10.417123 9.078128 0.000000 0.000000 0.000000 7.013571 -21.655856 -26.047625 144.622680 -45.079452 104.920008 4.882713 -5.178509 -6.336866 0.000000 0.000000 0.000000 -7.125000 0.000000 0.000000 -18.152771 35.805778 -4.276956 0.000000 0.000000 0.000000 1.390899 -71.339718 78.420153 -63.062023 -57.071293 -36.900505 4.053858 -15.024015 -23.385673 0.000000 0.000000 0.000000 7.125000 0.000000 0.000000 20.335709 7.664556 18.692367
-1.468465 16.645516 -4.811736 -6.961900 36.774607 -0.481386 0.000000 0.000000 0.000000 8.015827 -21.521627 -30.332441 3.623061 11.641102 34.473926 -0.294990 -12.413347 -3.905879 2.913048 -10.552870 -30.786365 0.000000 0.000000 0.000000 14.315273 -20.115342 -11.290465 -6.251610 -14.667717 45.983209 -1.857079 5.799162 -24.572230 -1.391102 7.456739 -21.078221 -1.392329 5.275710 9.494342 -2.724462 6.769116 1.175323 -2.905088 3.367478 -3.899451 -12.353288 -14.971026 -12.456465 23.879546 -22.016003 9.684934 6.831193 -9.333233 9.401078 0.000000 0.000000 0.000000 3.155633 -15.236381 6.019248 132.416668 -51.961767 95.739807 6.171225 -22.323549 -8.813562 0.000000 0.000000 0.000000 -7.125000 0.000000 0.000000 -17.705311 38.256778 -3.055103 0.000000 0.000000 0.000000 4.569735 -40.575399 70.440645 -72.162806 -58.762998 -44.616708 1.524572 -13.999693 -22.699487 0.000000 0.000000 0.000000 7.125000 0.000000 0.000000 18.883440 8.215759 16.965510
